<?xml version="1.0" standalone="no"?>
<!DOCTYPE svg PUBLIC "-//W3C//DTD SVG 20010904//EN"
 "http://www.w3.org/TR/2001/REC-SVG-20010904/DTD/svg10.dtd">
<svg version="1.0" xmlns="http://www.w3.org/2000/svg"
 width="282.000000pt" height="300.000000pt" viewBox="0 0 282.000000 300.000000"
 preserveAspectRatio="xMidYMid meet">
<metadata>
Created by potrace 1.16, written by Peter Selinger 2001-2019
</metadata>
<g transform="translate(0.000000,300.000000) scale(0.100000,-0.100000)"
fill="#000000" stroke="none">
<path d="M0 1500 l0 -1500 1410 0 1410 0 0 1500 0 1500 -1410 0 -1410 0 0
-1500z m1640 1046 c372 -62 695 -295 871 -629 275 -523 129 -1164 -346 -1525
-94 -72 -288 -166 -405 -197 -304 -80 -621 -41 -900 112 -202 110 -386 304
-494 520 -86 172 -119 317 -120 523 0 161 13 252 56 383 136 417 500 732 937
811 101 19 295 19 401 2z"/>
<path d="M1355 2504 c-294 -35 -505 -129 -699 -314 -93 -89 -147 -157 -209
-265 -40 -69 -97 -200 -97 -223 0 -4 493 -6 1095 -4 602 1 1095 6 1095 11 0
16 -61 156 -92 211 -118 211 -325 396 -555 495 -161 70 -383 107 -538 89z"/>
<path d="M1458 1593 c16 -6 17 -164 0 -181 -9 -9 -3 -12 27 -12 30 0 36 3 27
12 -7 7 -12 29 -12 50 l0 38 50 0 50 0 0 -38 c0 -21 -5 -43 -12 -50 -9 -9 -3
-12 27 -12 30 0 36 3 27 12 -17 17 -16 175 1 181 6 3 -6 6 -27 6 -31 1 -37 -2
-28 -11 7 -7 12 -27 12 -45 0 -33 0 -33 -50 -33 -50 0 -50 0 -50 33 0 18 5 38
12 45 9 9 3 12 -27 11 -22 0 -34 -3 -27 -6z"/>
<path d="M2049 1571 c-60 -61 -27 -156 58 -168 37 -5 45 -2 73 25 24 25 30 39
30 75 0 38 -5 49 -31 71 -43 36 -91 35 -130 -3z m111 -3 c15 -16 20 -35 20
-75 0 -45 -3 -55 -26 -69 -51 -34 -104 10 -104 89 0 68 66 102 110 55z"/>
<path d="M366 960 c98 -258 292 -484 526 -610 574 -309 1288 -89 1578 488 23
46 49 106 59 135 l18 52 -1102 0 -1103 0 24 -65z"/>
</g>
</svg>
